<svg width="18" height="18" viewBox="0 0 18 18" fill="none" xmlns="http://www.w3.org/2000/svg">
<path d="M9.00033 0.666016C4.40033 0.666016 0.666992 4.39935 0.666992 8.99935C0.666992 13.5993 4.40033 17.3327 9.00033 17.3327C13.6003 17.3327 17.3337 13.5993 17.3337 8.99935C17.3337 4.39935 13.6003 0.666016 9.00033 0.666016ZM9.41699 14.8327H8.58366C8.35366 14.8327 8.16699 14.646 8.16699 14.416V13.5827C8.16699 13.3527 8.35366 13.166 8.58366 13.166H9.41699C9.64699 13.166 9.83366 13.3527 9.83366 13.5827V14.416C9.83366 14.646 9.64699 14.8327 9.41699 14.8327ZM11.5587 8.37435L10.8087 9.14102C10.2087 9.74935 9.83366 10.2493 9.83366 11.4993H8.16699V11.0827C8.16699 10.166 8.54199 9.33268 9.14199 8.72435L10.1753 7.67435C10.5562 7.30435 10.7462 6.75602 10.6362 6.17185C10.5237 5.57435 10.0628 5.06602 9.47866 4.90018C8.55699 4.63852 7.69782 5.16602 7.42366 5.96018C7.31699 6.26935 7.05699 6.49935 6.72949 6.49935H6.48699C6.00283 6.49935 5.66449 6.02935 5.79949 5.56435C6.15699 4.33768 7.20033 3.40352 8.48699 3.20518C9.75699 3.00935 10.9612 3.66268 11.7145 4.70435C12.6978 6.06435 12.4078 7.52518 11.5587 8.37435Z" fill="white"/>
</svg>
