<svg width="15" height="15" id="Layer_1" data-name="Layer 1" xmlns="http://www.w3.org/2000/svg" viewBox="0 0 15 15"><defs><style>.cls-1{fill:#020205;}</style></defs><path class="cls-1" d="M7.5,0A7.5,7.5,0,1,0,15,7.5,7.5,7.5,0,0,0,7.5,0Zm.37,12.75H7.12a.38.38,0,0,1-.37-.38v-.75a.38.38,0,0,1,.37-.37h.75a.38.38,0,0,1,.38.37v.75A.38.38,0,0,1,7.87,12.75ZM9.8,6.94l-.67.69a2.55,2.55,0,0,0-.88,2.12H6.75V9.37a3,3,0,0,1,.88-2.12l.93-.94a1.5,1.5,0,0,0-.63-2.5,1.51,1.51,0,0,0-1.85.95.68.68,0,0,1-.62.49H5.24a.65.65,0,0,1-.62-.84A3,3,0,0,1,7,2.29a3.06,3.06,0,0,1,2.9,1.34A2.48,2.48,0,0,1,9.8,6.94Z"/></svg>