<?xml version="1.0" encoding="utf-8"?>
<!-- Generator: Adobe Illustrator 25.2.3, SVG Export Plug-In . SVG Version: 6.00 Build 0)  -->
<svg version="1.1" id="Layer_1" xmlns="http://www.w3.org/2000/svg" xmlns:xlink="http://www.w3.org/1999/xlink" x="0px" y="0px"
	 viewBox="0 0 54 44" style="enable-background:new 0 0 54 44;" xml:space="preserve">
<style type="text/css">
	.st0{fill:url(#SVGID_1_);}
</style>
<linearGradient id="SVGID_1_" gradientUnits="userSpaceOnUse" x1="-1.6893" y1="42.1333" x2="55.6884" y2="5.8649" gradientTransform="matrix(1 0 0 -1 0 46)">
	<stop  offset="0.1562" style="stop-color:#8955A2"/>
	<stop  offset="0.9999" style="stop-color:#E24E27"/>
	<stop  offset="1" style="stop-color:#8955A2;stop-opacity:0"/>
	<stop  offset="1" style="stop-color:#8955A2;stop-opacity:0"/>
</linearGradient>
<path class="st0" d="M5.7,0.7C2.7,0.7,0.3,3.1,0.3,6v13.3h8.5c-0.3-0.8-0.5-1.7-0.5-2.7c0-4.4,3.6-8,8-8c0.9,0,1.8,0.2,2.7,0.5V0.7
	H5.7z M24.3,0.7v8.5c0.8-0.3,1.7-0.5,2.7-0.5c4.4,0,8,3.6,8,8c0,0.9-0.2,1.8-0.5,2.7h19.2V6c0-2.9-2.4-5.3-5.3-5.3H24.3z M16.3,14
	c-1.5,0-2.7,1.2-2.7,2.7s1.2,2.7,2.7,2.7H19v-2.7C19,15.2,17.8,14,16.3,14z M27,14c-1.5,0-2.7,1.2-2.7,2.7v2.7H27
	c1.5,0,2.7-1.2,2.7-2.7S28.5,14,27,14z M0.3,24.7V38c0,2.9,2.4,5.3,5.3,5.3H19V28.4l-3.4,3.4c-1,1-2.7,1-3.8,0c-1-1-1-2.7,0-3.8
	l3.4-3.4H0.3z M28.1,24.7l3.4,3.4c1,1,1,2.7,0,3.8c-1,1-2.7,1-3.8,0l-3.4-3.4v14.9h24c2.9,0,5.3-2.4,5.3-5.3V24.7H28.1z"/>
</svg>
