<?xml version="1.0" encoding="utf-8"?>
<!-- Generator: Adobe Illustrator 25.2.3, SVG Export Plug-In . SVG Version: 6.00 Build 0)  -->
<svg version="1.1" id="Layer_1" xmlns="http://www.w3.org/2000/svg" xmlns:xlink="http://www.w3.org/1999/xlink" x="0px" y="0px"
	 viewBox="0 0 44 54" style="enable-background:new 0 0 44 54;" xml:space="preserve">
<style type="text/css">
	.st0{fill:url(#SVGID_1_);}
</style>
<linearGradient id="SVGID_1_" gradientUnits="userSpaceOnUse" x1="-5.7147" y1="39.9376" x2="49.5267" y2="17.6391" gradientTransform="matrix(1 0 0 -1 0 56)">
	<stop  offset="0.1562" style="stop-color:#8955A2"/>
	<stop  offset="0.9999" style="stop-color:#E24E27"/>
	<stop  offset="1" style="stop-color:#8955A2;stop-opacity:0"/>
	<stop  offset="1" style="stop-color:#8955A2;stop-opacity:0"/>
</linearGradient>
<path class="st0" d="M31.8,0.3C31,0.1,30,0.8,30,1.8v35.9v2.7V51c0,0.4,0.1,0.7,0.2,1c0.1,0.3,0.3,0.6,0.6,0.9
	c0.2,0.3,0.5,0.5,0.9,0.6c0.3,0.1,0.7,0.2,1,0.2s0.7-0.1,1-0.2c0.3-0.1,0.6-0.3,0.9-0.6c0.2-0.3,0.4-0.6,0.6-0.9
	c0.1-0.3,0.2-0.7,0.2-1V39.9c4.6-1.3,8-5.8,8-10.2c0-4.7-4.2-21.7-10.7-28.9C32.4,0.5,32.1,0.3,31.8,0.3z M11.3,0.3
	c-6.5,0-10.7,10.5-10.7,16c0,5,3.4,9.1,8,10.3V51c0,0.4,0.1,0.7,0.2,1c0.1,0.3,0.3,0.6,0.6,0.9c0.2,0.3,0.5,0.5,0.9,0.6
	c0.3,0.1,0.7,0.2,1,0.2c0.4,0,0.7-0.1,1-0.2c0.3-0.1,0.6-0.3,0.9-0.6c0.2-0.3,0.4-0.6,0.6-0.9c0.1-0.3,0.2-0.7,0.2-1V26.6
	c4.6-1.2,8-5.3,8-10.3C22,10.8,17.8,0.3,11.3,0.3z"/>
</svg>
