<?xml version="1.0" encoding="utf-8"?>
<!-- Generator: Adobe Illustrator 25.2.3, SVG Export Plug-In . SVG Version: 6.00 Build 0)  -->
<svg version="1.1" id="Layer_1" xmlns="http://www.w3.org/2000/svg" xmlns:xlink="http://www.w3.org/1999/xlink" x="0px" y="0px"
	 viewBox="0 0 48 54" style="enable-background:new 0 0 48 54;" xml:space="preserve">
<style type="text/css">
	.st0{fill:url(#SVGID_1_);}
</style>
<linearGradient id="SVGID_1_" gradientUnits="userSpaceOnUse" x1="-5.7569" y1="43.0171" x2="54.1147" y2="15.7688" gradientTransform="matrix(1 0 0 -1 0 56)">
	<stop  offset="0.1562" style="stop-color:#8955A2"/>
	<stop  offset="0.9999" style="stop-color:#E24E27"/>
	<stop  offset="1" style="stop-color:#8955A2;stop-opacity:0"/>
	<stop  offset="1" style="stop-color:#8955A2;stop-opacity:0"/>
</linearGradient>
<path class="st0" d="M42.7,0.3C42.7,1.8,41.5,3,40,3s-2.7-1.2-2.7-2.7H32C32,1.8,30.8,3,29.3,3s-2.7-1.2-2.7-2.7h-5.3
	c0,1.5-1.2,2.7-2.7,2.7S16,1.8,16,0.3h-5.3C10.7,1.8,9.5,3,8,3S5.3,1.8,5.3,0.3H2.7C1.2,0.3,0,1.5,0,3v45.3c0,2.9,2.4,5.3,5.3,5.3
	h37.3c2.9,0,5.3-2.4,5.3-5.3V3c0-1.5-1.2-2.7-2.7-2.7H42.7z M26.7,43h-16C9.2,43,8,41.8,8,40.3s1.2-2.7,2.7-2.7h16
	c1.5,0,2.7,1.2,2.7,2.7S28.1,43,26.7,43z M26.7,32.3h-16c-1.5,0-2.7-1.2-2.7-2.7S9.2,27,10.7,27h16c1.5,0,2.7,1.2,2.7,2.7
	S28.1,32.3,26.7,32.3z M38.7,43H36c-0.7,0-1.3-0.6-1.3-1.3V39c0-0.7,0.6-1.3,1.3-1.3h2.7c0.7,0,1.3,0.6,1.3,1.3v2.7
	C40,42.4,39.4,43,38.7,43z M38.7,32.3H36c-0.7,0-1.3-0.6-1.3-1.3v-2.7c0-0.7,0.6-1.3,1.3-1.3h2.7c0.7,0,1.3,0.6,1.3,1.3V31
	C40,31.7,39.4,32.3,38.7,32.3z M37.3,19H10.7C9.2,19,8,17.8,8,16.3s1.2-2.7,2.7-2.7h26.7c1.5,0,2.7,1.2,2.7,2.7S38.8,19,37.3,19z"/>
</svg>
