<?xml version="1.0" encoding="utf-8"?>
<!-- Generator: Adobe Illustrator 25.2.3, SVG Export Plug-In . SVG Version: 6.00 Build 0)  -->
<svg version="1.1" id="Layer_1" xmlns="http://www.w3.org/2000/svg" xmlns:xlink="http://www.w3.org/1999/xlink" x="0px" y="0px"
	 viewBox="0 0 54 48" style="enable-background:new 0 0 54 48;" xml:space="preserve">
<style type="text/css">
	.st0{fill:url(#SVGID_1_);}
</style>
<linearGradient id="SVGID_1_" gradientUnits="userSpaceOnUse" x1="-3.2148" y1="43.7614" x2="57.8652" y2="9.394" gradientTransform="matrix(1 0 0 -1 0 50)">
	<stop  offset="0.1562" style="stop-color:#8955A2"/>
	<stop  offset="0.9999" style="stop-color:#E24E27"/>
	<stop  offset="1" style="stop-color:#8955A2;stop-opacity:0"/>
	<stop  offset="1" style="stop-color:#8955A2;stop-opacity:0"/>
</linearGradient>
<path class="st0" d="M3,0C2.6,0,2.3,0.1,2,0.2C1.6,0.3,1.3,0.5,1.1,0.8C0.8,1,0.6,1.3,0.5,1.6s-0.2,0.7-0.2,1s0.1,0.7,0.2,1
	s0.3,0.6,0.6,0.9C1.3,4.8,1.6,5,2,5.1c0.3,0.1,0.7,0.2,1,0.2v40C3,46.8,4.2,48,5.7,48h10.2c1.6,0,2.8-1.3,2.7-2.9
	c-0.3-3.4-0.8-8.7-1.3-10.4H11c-1.5,0-2.7-1.2-2.7-2.7c0-1.5,1.2-2.7,2.7-2.7h7c3.2-5.2,9-14.8,9-24c0,9.2,5.6,18.8,8.7,24H43
	c1.5,0,2.7,1.2,2.7,2.7c0,1.5-1.2,2.7-2.7,2.7h-6.5c-0.5,1.7-1,7.1-1.3,10.4c-0.1,1.6,1.1,2.9,2.7,2.9h10.4c1.5,0,2.7-1.2,2.7-2.7
	v-40c0.4,0,0.7-0.1,1-0.2s0.6-0.3,0.9-0.6c0.3-0.2,0.5-0.5,0.6-0.9c0.1-0.3,0.2-0.7,0.2-1s-0.1-0.7-0.2-1c-0.1-0.3-0.3-0.6-0.6-0.9
	c-0.3-0.2-0.6-0.4-0.9-0.6C51.7,0.1,51.4,0,51,0H3z"/>
</svg>
