<?xml version="1.0" encoding="utf-8"?>
<!-- Generator: Adobe Illustrator 25.2.3, SVG Export Plug-In . SVG Version: 6.00 Build 0)  -->
<svg version="1.1" id="Layer_1" xmlns="http://www.w3.org/2000/svg" xmlns:xlink="http://www.w3.org/1999/xlink" x="0px" y="0px"
	 viewBox="0 0 54 54" style="enable-background:new 0 0 54 54;" xml:space="preserve">
<style type="text/css">
	.st0{fill:url(#SVGID_1_);}
</style>
<linearGradient id="SVGID_1_" gradientUnits="userSpaceOnUse" x1="-4.9781" y1="45.1627" x2="58.9722" y2="12.8242" gradientTransform="matrix(1 0 0 -1 0 56)">
	<stop  offset="0.1562" style="stop-color:#8955A2"/>
	<stop  offset="0.9999" style="stop-color:#E24E27"/>
	<stop  offset="1" style="stop-color:#8955A2;stop-opacity:0"/>
	<stop  offset="1" style="stop-color:#8955A2;stop-opacity:0"/>
</linearGradient>
<path class="st0" d="M21.6,0.3c-0.7,0-1.4,0.3-1.9,0.8L15.8,5L4.9,1.9L3,3.8l7,7l-2.5,2.5l-5.2-1.7l-2,2l10.8,10.8l2-2l-1.7-5.2
	l2.5-2.5l7,7l1.9-1.9L19.7,8.9L23.5,5c1.1-1.1,1.1-2.8,0-3.9C23,0.6,22.3,0.3,21.6,0.3z M32.1,0.9c-0.6,0-1.3,0.3-1.7,0.8
	c-0.5,0.5-0.7,1.1-0.8,1.7c0,0.6,0.1,1.3,0.5,1.8c0.4,0.5,1,0.9,1.6,1c2.1,0.5,4.1,1.3,5.9,2.3V19c0,1.5,1.2,2.7,2.7,2.7
	c1.5,0,2.7,1.2,2.7,2.7S41.8,27,40.3,27h-8c-1.5,0-2.7,1.2-2.7,2.7V35c0,2.9,2.4,5.3,5.3,5.3c1.5,0,2.7,1.2,2.7,2.7v2.5
	c-3.1,1.8-6.8,2.9-10.7,2.9c-1.8,0-3.6-0.3-5.3-0.7v-2c0-2.9-2.4-5.3-5.3-5.3c-1.5,0-2.7-1.2-2.7-2.7V35c0-1.5-1.2-2.7-2.7-2.7H6.4
	c-0.4-1.7-0.7-3.5-0.7-5.3c0-0.4-0.1-0.7-0.2-1c-0.1-0.3-0.3-0.6-0.6-0.9c-0.2-0.3-0.5-0.5-0.9-0.6c-0.3-0.1-0.7-0.2-1-0.2
	s-0.7,0.1-1,0.2c-0.3,0.1-0.6,0.3-0.9,0.6c-0.2,0.3-0.4,0.6-0.6,0.9c-0.1,0.3-0.2,0.7-0.2,1c0,14.7,12,26.7,26.7,26.7
	s26.7-12,26.7-26.7c0-12.7-8.9-23.3-20.7-26c-0.2,0-0.4-0.1-0.5-0.1C32.3,0.9,32.2,0.9,32.1,0.9z"/>
</svg>
