<?xml version="1.0" encoding="utf-8"?>
<!-- Generator: Adobe Illustrator 25.2.3, SVG Export Plug-In . SVG Version: 6.00 Build 0)  -->
<svg version="1.1" id="Layer_1" xmlns="http://www.w3.org/2000/svg" xmlns:xlink="http://www.w3.org/1999/xlink" x="0px" y="0px"
	 viewBox="0 0 52 54" style="enable-background:new 0 0 52 54;" xml:space="preserve">
<style type="text/css">
	.st0{fill:url(#SVGID_1_);}
</style>
<linearGradient id="SVGID_1_" gradientUnits="userSpaceOnUse" x1="-4.7974" y1="43.602" x2="57.1876" y2="13.8235" gradientTransform="matrix(1 0 0 -1 0 56)">
	<stop  offset="0.1562" style="stop-color:#8955A2"/>
	<stop  offset="0.9999" style="stop-color:#E24E27"/>
	<stop  offset="1" style="stop-color:#8955A2;stop-opacity:0"/>
	<stop  offset="1" style="stop-color:#8955A2;stop-opacity:0"/>
</linearGradient>
<path class="st0" d="M3.7,0.3C2.8,0.3,2,0.8,1.5,1.5C1,2.2,0.9,3.2,1.2,4l5.2,13l2.3,18.3c0.2,1.3,1.3,2.3,2.7,2.3h27
	c1.5,0,2.7-1.2,2.7-2.7V5.7h2.7c1.5,0,2.7,1.2,2.7,2.7v13.3c0,0.4,0.1,0.7,0.2,1c0.1,0.3,0.3,0.6,0.6,0.9c0.2,0.3,0.5,0.5,0.9,0.6
	c0.3,0.1,0.7,0.2,1,0.2c0.4,0,0.7-0.1,1-0.2c0.3-0.1,0.6-0.3,0.9-0.6c0.2-0.3,0.4-0.6,0.6-0.9c0.1-0.3,0.2-0.7,0.2-1V8.3
	c0-4.4-3.6-8-8-8h-5.3H3.7z M30.3,11c1.5,0,2.7,1.2,2.7,2.7v10.7c0,1.5-1.2,2.7-2.7,2.7s-2.7-1.2-2.7-2.7V13.7
	C27.7,12.2,28.9,11,30.3,11z M10.1,43c-0.7,0-1.4,0.3-1.9,0.8l-3.8,3.8c-0.5,0.5-0.8,1.2-0.8,1.9V51c0,1.5,1.2,2.7,2.7,2.7h37.3
	c1.5,0,2.7-1.2,2.7-2.7v-1.6c0-0.7-0.3-1.4-0.8-1.9l-3.8-3.8c-0.5-0.5-1.2-0.8-1.9-0.8H10.1z M25,45.7c1.5,0,2.7,1.2,2.7,2.7
	S26.5,51,25,51s-2.7-1.2-2.7-2.7S23.5,45.7,25,45.7z"/>
</svg>
