<svg width="15" height="15" viewBox="0 0 12 17" fill="none" xmlns="http://www.w3.org/2000/svg">
<path d="M6.00033 0.666016C2.77866 0.666016 0.166992 3.27768 0.166992 6.49935C0.166992 9.80435 3.83699 14.6827 5.35533 16.5585C5.68866 16.9702 6.31199 16.9702 6.64533 16.5585C8.16366 14.6827 11.8337 9.80435 11.8337 6.49935C11.8337 3.27768 9.22199 0.666016 6.00033 0.666016ZM6.00033 8.58268C4.84949 8.58268 3.91699 7.65018 3.91699 6.49935C3.91699 5.34852 4.84949 4.41602 6.00033 4.41602C7.15116 4.41602 8.08366 5.34852 8.08366 6.49935C8.08366 7.65018 7.15116 8.58268 6.00033 8.58268Z" fill="white"/>
</svg>
