<svg width="15" height="15" id="Layer_1" data-name="Layer 1" xmlns="http://www.w3.org/2000/svg" viewBox="0 0 15 15"><defs><style>.cls-1{fill:#020205;}</style></defs><path class="cls-1" d="M1.67,0A1.67,1.67,0,0,0,0,1.67V7.5A1.67,1.67,0,0,0,1.67,9.17H5.83v4.16A1.67,1.67,0,0,0,7.5,15h5.83A1.67,1.67,0,0,0,15,13.33V7.5a1.67,1.67,0,0,0-1.67-1.67H9.17V1.67A1.67,1.67,0,0,0,7.5,0ZM4.58,1.67a.72.72,0,0,1,.7.51l1.25,4a1.65,1.65,0,0,0-.69,1.26.62.62,0,0,1-.26-.35l-.19-.75H3.78l-.2.75A.59.59,0,0,1,3,7.5a.58.58,0,0,1-.55-.76L3.88,2.18A.73.73,0,0,1,4.58,1.67Zm0,1.58L4,5.32h1.1Zm5.6,4.25a2.64,2.64,0,0,1,1.17.25A.28.28,0,0,1,11.5,8a.27.27,0,0,1-.33.26,3.12,3.12,0,0,0-.74-.11c-.16,0-.59.15-.59.5s.67.57.86.57a5.08,5.08,0,0,0,1.12-.15l-.36,1.36a1.13,1.13,0,0,0-1.89,1.07c.35.75,1.39,1,2.16,1.08a.27.27,0,0,1,.06.52,3.81,3.81,0,0,1-1.36.24c-1,0-2.2-.55-2.2-1.65A2,2,0,0,1,9.33,10a1.92,1.92,0,0,1-.54-1.21A1.51,1.51,0,0,1,10.18,7.5Z"/></svg>