<svg width="15" height="15" viewBox="0 0 18 18" fill="none" xmlns="http://www.w3.org/2000/svg">
<path d="M2 0C0.895 0 0 0.895 0 2V9C0 10.105 0.895 11 2 11H7V16C7 17.105 7.895 18 9 18H16C17.105 18 18 17.105 18 16V9C18 7.895 17.105 7 16 7H11V2C11 0.895 10.105 0 9 0H2ZM5.49805 2C5.88205 2 6.22384 2.24823 6.33984 2.61523L7.83789 7.37695C7.3611 7.71872 7.04725 8.26396 7.01172 8.88672C6.86384 8.79426 6.74732 8.65481 6.70117 8.47656L6.46289 7.56641H4.53516L4.29688 8.47656C4.21588 8.78556 3.93619 9 3.61719 9C3.14419 9 2.80822 8.54084 2.94922 8.08984L4.6582 2.61719C4.7732 2.24919 5.11305 2 5.49805 2ZM5.49609 3.89453L4.8418 6.38867H6.15039L5.49609 3.89453ZM12.2129 9C12.9029 9 13.3811 9.18178 13.6211 9.30078C13.7311 9.35578 13.8008 9.46589 13.8008 9.58789C13.8008 9.79689 13.6033 9.95339 13.4023 9.90039C13.1633 9.83739 12.8437 9.77344 12.5137 9.77344C12.3287 9.77344 11.8027 9.94319 11.8027 10.3672C11.8027 10.8992 12.6117 11.0508 12.8438 11.0508C13.5028 11.0508 14.1895 10.8711 14.1895 10.8711L13.7578 12.5C13.7578 12.5 13.1009 11.8376 12.1719 12.2676C11.5049 12.5756 11.3483 13.4782 11.4883 13.7852C11.9033 14.6892 13.1533 14.9889 14.0723 15.0859C14.4093 15.1209 14.4683 15.5821 14.1523 15.7051C13.7393 15.8661 13.1927 15.998 12.5137 15.998C11.3517 15.998 9.87695 15.3396 9.87695 14.0176C9.87695 12.6986 11.1973 12.0371 11.1973 12.0371C11.1973 12.0371 10.5508 11.404 10.5508 10.582C10.5508 9.84203 11.3949 9 12.2129 9Z" fill="white"/>
</svg>
