<svg id="Layer_1" data-name="Layer 1" xmlns="http://www.w3.org/2000/svg" viewBox="0 0 50.19 50.19"><defs><style>.cls-1{fill:#c8d419;}.cls-2{fill:#29b9e6;}.cls-3{fill:#6fabc0;}</style></defs><path class="cls-1" d="M49.25.94H.94v48.3H49.25Z"/><path class="cls-2" d="M11.83,29.52A77.31,77.31,0,0,0,1,49.24h9.81A147.78,147.78,0,0,1,11.83,29.52Z"/><path class="cls-2" d="M5.08,28.49c2.38-1.83,5.05-3.74,7.85-5.51C14.83,14.5,18.36,6.3,25.11,1.25,31.89,6.3,35.43,14.5,37.3,23c2.81,1.77,5.47,3.68,7.86,5.51C41.69,17.94,35.57,6.38,25.16.94h0C14.66,6.37,8.54,17.94,5.08,28.49Z"/><path class="cls-2" d="M39.36,49.24h9.89A78.27,78.27,0,0,0,38.43,29.52,146.07,146.07,0,0,1,39.36,49.24Z"/><path class="cls-2" d="M49.25,49.24V31.77c-1.23-1-2.62-2.12-4.11-3.28A81.25,81.25,0,0,1,49.25,49.24Z"/><path class="cls-2" d="M25.11,17.33A47.11,47.11,0,0,1,38.43,29.52c-.28-2.17-.64-4.36-1.13-6.54a54.6,54.6,0,0,0-12.19-6,55.46,55.46,0,0,0-12.19,6c-.49,2.18-.86,4.37-1.14,6.54A46.86,46.86,0,0,1,25.11,17.33Z"/><path class="cls-2" d="M.94,31.77V49.24A81.68,81.68,0,0,1,5.05,28.49C3.57,29.63,2.19,30.74.94,31.77Z"/><path class="cls-2" d="M37.3,23c.5,2.17.86,4.37,1.14,6.53A77.89,77.89,0,0,1,49.25,49.23a81.08,81.08,0,0,0-4.11-20.75C42.75,26.65,40.11,24.75,37.3,23Z"/><path class="cls-2" d="M12.91,23c-2.8,1.76-5.47,3.68-7.86,5.5A82,82,0,0,0,.94,49.23,78.78,78.78,0,0,1,11.75,29.5C12.05,27.34,12.41,25.1,12.91,23Z"/><path class="cls-3" d="M37.3,23c.5,2.17.86,4.37,1.14,6.53A77.89,77.89,0,0,1,49.25,49.23a81.08,81.08,0,0,0-4.11-20.75C42.75,26.65,40.11,24.75,37.3,23Z"/><path class="cls-3" d="M12.91,23c-2.8,1.76-5.47,3.68-7.86,5.5A82,82,0,0,0,.94,49.23,78.78,78.78,0,0,1,11.75,29.5C12.05,27.34,12.41,25.1,12.91,23Z"/></svg>