<svg id="Layer_1" data-name="Layer 1" xmlns="http://www.w3.org/2000/svg" viewBox="0 0 229 50"><defs><style>.cls-1{fill:#c8d419;}.cls-2{fill:#29b9e6;}.cls-3{fill:#6fabc0;}.cls-4{fill:#0c6d7c;}</style></defs><path class="cls-1" d="M229,.69H180.6v48.4H229Z"/><path class="cls-2" d="M191.45,29.33a77.52,77.52,0,0,0-10.83,19.76h9.9A149.64,149.64,0,0,1,191.45,29.33Z"/><path class="cls-2" d="M184.73,28.3c2.4-1.83,5.07-3.75,7.87-5.52C194.47,14.28,198,6.06,204.82,1,211.6,6.06,215.16,14.28,217,22.78c2.81,1.77,5.48,3.69,7.87,5.52C221.43,17.73,215.29,6.15,204.83.69h0C194.34,6.14,188.2,17.73,184.73,28.3Z"/><path class="cls-2" d="M219.1,49.09H229a78.11,78.11,0,0,0-10.84-19.76A148.19,148.19,0,0,1,219.1,49.09Z"/><path class="cls-2" d="M229,49.09V31.59c-1.24-1-2.63-2.14-4.12-3.29A80.68,80.68,0,0,1,229,49.09Z"/><path class="cls-2" d="M204.82,17.11a47.35,47.35,0,0,1,13.35,12.22c-.28-2.17-.65-4.37-1.14-6.55a54.58,54.58,0,0,0-12.21-6,54.88,54.88,0,0,0-12.22,6c-.49,2.18-.86,4.38-1.14,6.55A46.84,46.84,0,0,1,204.82,17.11Z"/><path class="cls-2" d="M180.6,31.59v17.5a81.14,81.14,0,0,1,4.12-20.79C183.23,29.43,181.84,30.55,180.6,31.59Z"/><path class="cls-2" d="M217,22.76c.49,2.19.86,4.39,1.14,6.56A77.92,77.92,0,0,1,229,49.07a80.75,80.75,0,0,0-4.12-20.79C222.49,26.45,219.84,24.55,217,22.76Z"/><path class="cls-2" d="M192.58,22.76c-2.8,1.77-5.47,3.69-7.86,5.52a81.36,81.36,0,0,0-4.12,20.79,78.67,78.67,0,0,1,10.83-19.75C191.73,27.15,192.1,25,192.58,22.76Z"/><path class="cls-3" d="M217,22.76c.49,2.19.86,4.39,1.14,6.56A77.92,77.92,0,0,1,229,49.07a80.75,80.75,0,0,0-4.12-20.79C222.49,26.45,219.84,24.55,217,22.76Z"/><path class="cls-3" d="M192.58,22.76c-2.8,1.77-5.47,3.69-7.86,5.52a81.36,81.36,0,0,0-4.12,20.79,78.67,78.67,0,0,1,10.83-19.75C191.73,27.15,192.1,25,192.58,22.76Z"/><path class="cls-4" d="M169.83,49.09h1.09V39.41h-1.09Zm0-11.16h1.09V36.07h-1.09Z"/><path class="cls-4" d="M8,44.65c-.16,3-1.53,4.63-3.86,4.63C1.52,49.28,0,47.21,0,42.55s1.49-6.73,4.16-6.73,3.73,1.88,3.73,4H6.74c0-1.78-.88-3-2.56-3-1.86,0-3,1.54-3,5.74s1.14,5.74,3,5.74c1.63,0,2.56-1.4,2.7-3.64Z"/><path class="cls-4" d="M10.28,44.22c0-3.09,1-4.13,2.17-4.13s2.17,1.06,2.17,4.13-.94,4.14-2.17,4.14S10.28,47.3,10.28,44.22Zm-1.16,0c0,3.36,1.19,5.06,3.33,5.06s3.34-1.7,3.34-5.06-1.21-5-3.34-5S9.12,40.85,9.12,44.22Z"/><path class="cls-4" d="M17.46,39.38h1v1.34h0a2.54,2.54,0,0,1,2.45-1.56,1.91,1.91,0,0,1,2,1.69h0a2.5,2.5,0,0,1,2.47-1.69c1.34,0,2.24.77,2.24,2.49v7.41H26.62V41.81c0-1.13-.53-1.74-1.52-1.74s-2,1-2,2.48v6.51H22V41.81c0-1.13-.53-1.74-1.52-1.74s-2,1-2,2.48v6.51H17.46Z"/><path class="cls-4" d="M30,39.38h1v1.34h0a2.55,2.55,0,0,1,2.46-1.56,1.91,1.91,0,0,1,2,1.69h.05A2.47,2.47,0,0,1,38,39.16c1.35,0,2.24.77,2.24,2.49v7.41H39.12V41.81c0-1.13-.53-1.74-1.51-1.74s-2,1-2,2.48v6.51H34.54V41.81c0-1.13-.53-1.74-1.52-1.74s-2,1-2,2.48v6.51H30Z"/><path class="cls-4" d="M43.16,43.35c0-2.41.71-3.28,2.06-3.28s2,.89,2.06,3.28Zm4.1,2.51c-.18,1.69-.9,2.5-2,2.5s-2.06-.85-2.06-3.64v-.46h5.28v-.4c0-3.23-1-4.7-3.11-4.7S42,40.85,42,44.2c0,3.65,1.2,5.07,3.25,5.07,1.81,0,2.95-1.38,3.11-3.43H47.26Z"/><path class="cls-4" d="M50.15,39.38h1.09V40.9h0a2.56,2.56,0,0,1,2.44-1.73,1.26,1.26,0,0,1,.38.06v1.09a2.46,2.46,0,0,0-.53-.06c-1.19,0-2.33.89-2.33,2.76v6H50.14V39.38Z"/><path class="cls-4" d="M61,45.86c-.16,2-1.3,3.42-3.08,3.42-2,0-3.25-1.42-3.25-5.06,0-3.35,1.2-5,3.34-5,1.81,0,2.87,1.11,3,3.1H60c-.13-1.5-.72-2.18-1.89-2.18s-2.17.72-2.17,4.14c0,3.65,1,4.13,2,4.13s1.83-.81,2-2.5Z"/><path class="cls-4" d="M62.71,49.06H63.8V39.38H62.71Zm0-11.16H63.8V36H62.71Z"/><path class="cls-4" d="M70.43,45.64c0,1.74-.92,2.72-2.25,2.72-.94,0-1.53-.76-1.53-1.88a1.89,1.89,0,0,1,1.67-2l.9-.24c.44-.1,1.06-.31,1.16-.63h.05ZM66.9,42.26c0-1.41.56-2.19,1.86-2.19a1.49,1.49,0,0,1,1.68,1.68c0,1.14-.16,1.32-.93,1.54l-2.05.59a2.54,2.54,0,0,0-1.95,2.67c0,1.68.77,2.73,2.47,2.73a2.36,2.36,0,0,0,2.49-1.64h0V48c0,1,.55,1.21,1.41,1.21a1.56,1.56,0,0,0,.5-.12v-.81h-.31c-.39,0-.56-.25-.56-.8V41.73c0-1.54-.73-2.57-2.73-2.57s-3,1.1-3,3.1Z"/><path class="cls-4" d="M74.93,36H73.84v13h1.09Z"/><path class="cls-4" d="M82.56,37.05h2c1.81,0,2.71.63,2.71,2.37,0,1.51-.91,2.36-2.92,2.36H82.56Zm0,5.72h2.16c2,0,3,.92,3,2.66s-1,2.67-3,2.67H82.56Zm-1.17,6.32H85c2.46,0,3.94-1.37,3.94-3.65a3,3,0,0,0-2.42-3.24v0a2.77,2.77,0,0,0,2-2.82c0-1.93-1-3.26-3.49-3.26H81.39Z"/><path class="cls-4" d="M95,45.66c0,1.73-.9,2.73-2.24,2.73-.94,0-1.53-.76-1.53-1.88a1.88,1.88,0,0,1,1.65-2l.91-.24c.43-.11,1.07-.31,1.17-.63h0v2Zm-3.52-3.37c0-1.41.56-2.19,1.86-2.19A1.49,1.49,0,0,1,95,41.78c0,1.13-.16,1.32-.93,1.54l-2,.59a2.54,2.54,0,0,0-2,2.67c0,1.68.77,2.73,2.47,2.73A2.34,2.34,0,0,0,95,47.67h0V48c0,1,.55,1.21,1.41,1.21a2,2,0,0,0,.51-.1v-.81h-.31c-.38,0-.56-.25-.56-.8V41.78c0-1.53-.72-2.56-2.73-2.56s-3,1.12-3,3.1h1.06Z"/><path class="cls-4" d="M98.31,39.41h1v1.34h0a2.7,2.7,0,0,1,2.48-1.56,2.27,2.27,0,0,1,2.47,2.59v7.31h-1.09v-7c0-1.32-.54-2-1.65-2a2.2,2.2,0,0,0-2.14,2.48v6.51H98.3V39.41Z"/><path class="cls-4" d="M106.28,36.07h1.09v8.15h0l3.76-4.81h1.34L109.6,43l3.45,6.1h-1.34L108.82,44l-1.45,1.71v3.4h-1.09Z"/><path class="cls-4" d="M119.5,44.23c0-3.08,1-4.13,2.17-4.13s2.17,1.06,2.17,4.13-.94,4.16-2.17,4.16S119.5,47.33,119.5,44.23Zm-1.16,0c0,3.38,1.21,5.06,3.33,5.06S125,47.6,125,44.23s-1.21-5-3.34-5S118.34,40.88,118.34,44.23Z"/><path class="cls-4" d="M127,40.32h-1.33v-.91H127V38.26c0-1.33.28-2.33,2.11-2.33a3.35,3.35,0,0,1,.7,0v.92a3,3,0,0,0-.54,0c-.79,0-1.18.31-1.18,1.41v1.15h1.72v.92H128.1V49.1H127Z"/><path class="cls-4" d="M137.16,37.05h1.89c2.56,0,3.63,1.28,3.63,5.55s-1.07,5.5-3.63,5.5h-1.89Zm-1.16,12h3.14c3.79,0,4.72-2.26,4.72-6.51s-.93-6.51-4.72-6.51H136Z"/><path class="cls-4" d="M145.81,39.41h1.09v6.82c0,1.56.52,2.16,1.68,2.16a2.19,2.19,0,0,0,2.11-2.47V39.41h1.1v9.68h-1V47.73h0a2.7,2.7,0,0,1-2.48,1.56,2.26,2.26,0,0,1-2.48-2.58Z"/><path class="cls-4" d="M154.9,44.23c0-3.57,1-4.13,2.11-4.13s2.11.56,2.11,4.13-1,4.16-2.11,4.16S154.9,47.82,154.9,44.23Zm-1.11,4.86h1V47.48h0a2.39,2.39,0,0,0,2.38,1.81c2.12,0,3.1-1.71,3.1-5.06s-1-5-3.1-5a2.14,2.14,0,0,0-2.26,1.68h0v-4.8h-1.09v13Z"/><path class="cls-4" d="M166.44,45.66c0,1.73-.92,2.73-2.24,2.73-.95,0-1.54-.76-1.54-1.88a1.88,1.88,0,0,1,1.65-2l.92-.24c.43-.11,1.05-.31,1.16-.63h.05Zm-3.54-3.37c0-1.41.56-2.19,1.86-2.19a1.49,1.49,0,0,1,1.68,1.68c0,1.13-.16,1.32-.93,1.54l-2.07.59a2.55,2.55,0,0,0-1.94,2.67c0,1.68.76,2.73,2.46,2.73a2.32,2.32,0,0,0,2.49-1.64h0V48c0,1,.55,1.21,1.4,1.21a2,2,0,0,0,.52-.1v-.81h-.31c-.38,0-.57-.25-.57-.8V41.78c0-1.53-.73-2.56-2.73-2.56s-3,1.12-3,3.1h1.11Z"/><path class="cls-4" d="M74.16,14s.24,10.18.24,10.79a4,4,0,0,1-.61,2.7c.62-.31,1.46-1.76,1.46-3.61C75.25,23,75,13,75,13Z"/><path class="cls-4" d="M13.37,17.82s.63,8.22.32,9.31c-.53,1.93-1.53,2.73-4,3.26a2.59,2.59,0,0,0,2.7-.12c1.29-.91,2.17-3.17,2.17-5.34,0-1-.35-8.3-.35-8.3Z"/><path class="cls-4" d="M70.54,14s.23,9.7.31,10.76c.06.75-.25,1-1.24,1h-3c-.37,0-1.72,0-2.15-.51s-.53-.78-.53-3.5c0-3.39.12-4.37-.27-5.12l-.79,1.2c.23.44.44.67.35,3.42s.35,3.14-.07,4c-.31.61-2,.53-2.36.53H57.26c-.36-1.06-1.4-2.05-3.52-3.43C51,20.52,49.21,19.5,49.21,18a4.42,4.42,0,0,1,.15-1.36A4.28,4.28,0,0,0,48.51,19c0,1.38,1.23,2.57,3.32,3.83a20,20,0,0,1,4.28,3H21.23c-.37,0-2.09,0-2.4-.65-.52-1.11-.15-5.05-.14-7.8s.11-3.56-.29-4.31l-.75,1.29c.23.46.37.49.28,3.24s-.19,6.78-.12,7.73c.12,1.34.46,2,3.48,2H56.81a8.11,8.11,0,0,1-1.15,4.32,7.43,7.43,0,0,0,1.74-4.32h3.44c.66,0,2.4.07,3-1.49.49,1.35,1.2,1.49,2.79,1.49h3.07a1.45,1.45,0,0,0,1.44-.9,5.37,5.37,0,0,0,.54-2.44c0-.94-.27-10.92-.27-10.92Z"/><path class="cls-4" d="M10.46,26c0-1.3-.51-1.62-1.39-2.64-.7-.84-1.28-1.39-1.28-1.7s.77-3.07,2.44-3.57l.26-1.49c-1.22,0-3.16,3.23-3.38,5.83,0,.52.59,1,1,1.52.78.87,1.71,1.36,1.71,1.64s-.4.13-.66.13H3.53C1.64,25.76.65,25,.65,21.89c0-3.39.77-4.6.77-4.6l-.08-.65S0,18.5,0,22.35s.44,4.9,3.44,4.9H9.58S10.46,27.35,10.46,26Z"/><path class="cls-4" d="M152.51,15.4a3.28,3.28,0,0,0,.77-1.19,3.4,3.4,0,0,0-.87-1.2l-.64,1.23A1.8,1.8,0,0,1,152.51,15.4Z"/><path class="cls-4" d="M62.64,15.4a3.28,3.28,0,0,0,.75-1.19,3.4,3.4,0,0,0-.87-1.2l-.64,1.23A1.75,1.75,0,0,1,62.64,15.4Z"/><path class="cls-4" d="M64.11,15.4a3.14,3.14,0,0,0,.75-1.19A3.4,3.4,0,0,0,64,13l-.63,1.23A1.76,1.76,0,0,1,64.11,15.4Z"/><path class="cls-4" d="M161.82,31.29a3.14,3.14,0,0,0,.75-1.19,3.5,3.5,0,0,0-.87-1.2l-.63,1.23A1.82,1.82,0,0,1,161.82,31.29Z"/><path class="cls-4" d="M102.15,31.29a3.14,3.14,0,0,0,.75-1.19,3.5,3.5,0,0,0-.87-1.2l-.63,1.23A1.82,1.82,0,0,1,102.15,31.29Z"/><path class="cls-4" d="M86.2,31.29A3.28,3.28,0,0,0,87,30.1a3.5,3.5,0,0,0-.87-1.2l-.64,1.23A1.86,1.86,0,0,1,86.2,31.29Z"/><path class="cls-4" d="M52.12,31.29a3.28,3.28,0,0,0,.75-1.19A3.5,3.5,0,0,0,52,28.9l-.64,1.23A1.9,1.9,0,0,1,52.12,31.29Z"/><path class="cls-4" d="M87.68,31.29a3.28,3.28,0,0,0,.75-1.19,3.5,3.5,0,0,0-.87-1.2l-.64,1.23A1.82,1.82,0,0,1,87.68,31.29Z"/><path class="cls-4" d="M4.23,31.29A3.21,3.21,0,0,0,5,30.1a3.5,3.5,0,0,0-.87-1.2l-.64,1.23A1.78,1.78,0,0,1,4.23,31.29Z"/><path class="cls-4" d="M5.71,31.29a3.14,3.14,0,0,0,.75-1.19,3.5,3.5,0,0,0-.87-1.2L5,30.13A1.82,1.82,0,0,1,5.71,31.29Z"/><path class="cls-4" d="M137.08,21.49a2.86,2.86,0,0,0,2.71-2.83,5.57,5.57,0,0,1-2.29,0,3,3,0,0,1,1.79-1.06,3.46,3.46,0,0,0,.09-.93,5.2,5.2,0,0,0-1.66.93c-.72.62-1.13,1.25-1,1.64.45.57,2.43.31,2.43.31s-.06.75-2.4,1.19-3.21,0-3.21,0S134.32,21.83,137.08,21.49Z"/><path class="cls-4" d="M117.27,16.68c-1.65,0-2.08,2.11-2.08,2.11a2,2,0,0,1,1.74-.95c2.32,0,4.37,8,2.85,8h-4c-1.86,0-2.23-.25-1.89-2.51-1.17,2.61-.38,4,1.43,4H120C122.29,27.31,120.33,16.68,117.27,16.68Z"/><path class="cls-4" d="M169.48,16.68s-.74,1.23-.73,1.24c1.72,3.8,1.83,7.9.93,7.9H155.83c-.37,0-1.71,0-2.16-.52s-.51-.78-.51-3.5c0-3.39.12-4.36-.27-5.1l-.81,1.18c.24.44.44.68.36,3.42s.35,3.15-.08,4c-.31.6-2,.53-2.34.53H148.5a2.49,2.49,0,0,1-1.33-.27c-.62-.4-.36-.9-.36-2.37,0-1.95-.25-5.73-.13-10.17l-1,.93s.16,5,.16,6.11.48,4.1-.25,4.94-1.8.84-3.2.84H131.26c-1.87,0-2.86-.75-2.86-3.86,0-3.4.77-4.61.77-4.61l-.08-.65s-1.34,1.86-1.34,5.71.43,4.92,3.42,4.92h11.38c1.12,0,3-.18,3.67-1.48a2.19,2.19,0,0,0,2.26,1.48H150c.66,0,2.4.07,3-1.49.47,1.36,1.19,1.49,2.78,1.49H168c.9,0,2,0,2.33-.42C170.73,26.31,171.79,22,169.48,16.68Z"/><path class="cls-4" d="M108.75,17.94c1.71,3.79,1.83,7.88.92,7.88H96.32c-1.08,0-2.23.19-2.15-2.83.09-3.71-.3-6-.49-6.29-.9-.1-4.87,2.77-4.93,5.86,0,.51.62,1.08,1.12,1.59s1.33,1.09,1.33,1.52c0,.16-.28.16-.44.16H85.31c-1.87,0-2.87-.75-2.87-3.86,0-3.4.76-4.61.76-4.61l0-.64s-1.35,1.85-1.35,5.71.43,4.89,3.43,4.89h5.69s.77.11.77-1.22a3.36,3.36,0,0,0-1.06-2.6c-.71-.85-1.21-1.41-1.21-1.71a7.8,7.8,0,0,1,3.82-3.63,22.72,22.72,0,0,1,.31,4c.13,3-.68,5.13,2.93,5.13h11.6c.9,0,2,.05,2.33-.41s1.45-4.87-.87-10.19C109.51,16.69,108.75,17.93,108.75,17.94Z"/></svg>