<svg id="Layer_1" data-name="Layer 1" xmlns="http://www.w3.org/2000/svg" viewBox="0 0 230.31 50.19"><defs><style>.cls-1{fill:#c8d419;}.cls-2{fill:#29b9e6;}.cls-3{fill:#6fabc0;}.cls-4{fill:#0c6d7c;}</style></defs><path class="cls-1" d="M229.42.84h-48.3v48.3h48.3Z"/><path class="cls-2" d="M192,29.42a77.58,77.58,0,0,0-10.81,19.72H191A149,149,0,0,1,192,29.42Z"/><path class="cls-2" d="M185.25,28.39c2.38-1.83,5.05-3.74,7.85-5.51C195,14.4,198.53,6.2,205.29,1.15c6.77,5.05,10.32,13.25,12.19,21.73,2.8,1.77,5.46,3.68,7.85,5.51-3.46-10.55-9.59-22.11-20-27.55h0C194.83,6.27,188.71,17.84,185.25,28.39Z"/><path class="cls-2" d="M219.54,49.14h9.88A77.8,77.8,0,0,0,218.6,29.42,145.9,145.9,0,0,1,219.54,49.14Z"/><path class="cls-2" d="M229.42,49.14V31.67c-1.23-1-2.62-2.13-4.11-3.28A80.69,80.69,0,0,1,229.42,49.14Z"/><path class="cls-2" d="M205.29,17.23a47,47,0,0,1,13.32,12.19c-.28-2.17-.64-4.36-1.13-6.54a54.14,54.14,0,0,0-12.19-6,54.58,54.58,0,0,0-12.19,6c-.49,2.18-.86,4.37-1.14,6.54A46.62,46.62,0,0,1,205.29,17.23Z"/><path class="cls-2" d="M181.12,31.67V49.14a81.15,81.15,0,0,1,4.11-20.75C183.74,29.52,182.36,30.64,181.12,31.67Z"/><path class="cls-2" d="M217.48,22.87c.49,2.17.85,4.37,1.13,6.53a77.76,77.76,0,0,1,10.81,19.72,80.77,80.77,0,0,0-4.11-20.75C222.93,26.55,220.28,24.65,217.48,22.87Z"/><path class="cls-2" d="M193.08,22.87c-2.8,1.76-5.46,3.68-7.85,5.5a81.3,81.3,0,0,0-4.11,20.75A78.51,78.51,0,0,1,191.93,29.4C192.23,27.24,192.59,25,193.08,22.87Z"/><path class="cls-3" d="M217.48,22.87c.49,2.17.85,4.37,1.13,6.53a77.76,77.76,0,0,1,10.81,19.72,80.77,80.77,0,0,0-4.11-20.75C222.93,26.55,220.28,24.65,217.48,22.87Z"/><path class="cls-3" d="M193.08,22.87c-2.8,1.76-5.46,3.68-7.85,5.5a81.3,81.3,0,0,0-4.11,20.75A78.51,78.51,0,0,1,191.93,29.4C192.23,27.24,192.59,25,193.08,22.87Z"/><path class="cls-4" d="M170.37,49.14h1.09V39.48h-1.09Zm0-11.14h1.09V36.15h-1.09Z"/><path class="cls-4" d="M8.91,44.7c-.16,3-1.53,4.63-3.86,4.63C2.4,49.33.9,47.26.9,42.61S2.39,35.9,5.05,35.9s3.73,1.87,3.73,4H7.62c0-1.76-.89-3-2.57-3-1.85,0-3,1.53-3,5.73s1.14,5.73,3,5.73c1.64,0,2.57-1.4,2.7-3.64Z"/><path class="cls-4" d="M11.15,44.28c0-3.08.94-4.13,2.16-4.13s2.17,1.06,2.17,4.13-.94,4.13-2.17,4.13S11.15,47.35,11.15,44.28Zm-1.16,0c0,3.35,1.19,5,3.32,5s3.33-1.7,3.33-5-1.21-5-3.33-5S10,40.92,10,44.28Z"/><path class="cls-4" d="M18.31,39.45h1v1.34h.05a2.53,2.53,0,0,1,2.44-1.56,1.9,1.9,0,0,1,2,1.69h0a2.46,2.46,0,0,1,2.46-1.69c1.34,0,2.24.76,2.24,2.48v7.4H27.45V41.88c0-1.14-.53-1.74-1.52-1.74s-2,1-2,2.47v6.5H22.88V41.88c0-1.14-.53-1.74-1.51-1.74s-2,1-2,2.47v6.5H18.31Z"/><path class="cls-4" d="M30.79,39.45h1v1.34h0a2.55,2.55,0,0,1,2.46-1.56,1.9,1.9,0,0,1,2,1.69h0a2.45,2.45,0,0,1,2.44-1.69c1.36,0,2.24.76,2.24,2.48v7.4H39.92V41.88c0-1.14-.53-1.74-1.5-1.74s-2,1-2,2.47v6.5H35.36V41.88c0-1.14-.53-1.74-1.52-1.74s-2,1-2,2.47v6.5H30.79Z"/><path class="cls-4" d="M44,43.41c0-2.4.7-3.27,2.06-3.27s2,.88,2,3.27Zm4.09,2.5c-.18,1.69-.9,2.5-2,2.5S44,47.56,44,44.78v-.46h5.27v-.4c0-3.22-1-4.69-3.11-4.69s-3.33,1.69-3.33,5c0,3.64,1.2,5.05,3.24,5.05,1.81,0,2.95-1.37,3.11-3.41H48.05Z"/><path class="cls-4" d="M50.94,39.45H52V41h0a2.54,2.54,0,0,1,2.43-1.72,1.26,1.26,0,0,1,.38.06v1.09a2,2,0,0,0-.53-.06c-1.19,0-2.33.88-2.33,2.75v6H50.92V39.45Z"/><path class="cls-4" d="M61.8,45.91c-.16,2.05-1.29,3.42-3.07,3.42-2,0-3.24-1.42-3.24-5,0-3.35,1.19-5,3.32-5,1.82,0,2.88,1.1,3,3.09H60.71c-.13-1.5-.72-2.18-1.88-2.18s-2.17.72-2.17,4.14c0,3.64,1,4.12,2.05,4.12s1.83-.81,2-2.5Z"/><path class="cls-4" d="M63.47,49.11h1.09V39.45H63.47Zm0-11.14h1.09V36.12H63.47Z"/><path class="cls-4" d="M71.17,45.69c0,1.74-.91,2.72-2.24,2.72-.94,0-1.53-.76-1.53-1.88a1.89,1.89,0,0,1,1.66-2l.9-.24c.44-.1,1.06-.31,1.17-.63h0Zm-3.52-3.37c0-1.4.56-2.18,1.86-2.18a1.48,1.48,0,0,1,1.67,1.68c0,1.13-.16,1.31-.92,1.53l-2.05.59a2.53,2.53,0,0,0-1.94,2.66c0,1.68.76,2.73,2.45,2.73a2.35,2.35,0,0,0,2.49-1.64h.05V48c0,1,.54,1.2,1.4,1.2a1.51,1.51,0,0,0,.5-.11V48.3h-.31c-.38,0-.56-.25-.56-.8V41.79c0-1.53-.72-2.56-2.73-2.56s-3,1.1-3,3.09Z"/><path class="cls-4" d="M75.66,36.12H74.57v13h1.09Z"/><path class="cls-4" d="M83.27,37.12h2c1.81,0,2.71.63,2.71,2.37,0,1.5-.91,2.36-2.92,2.36H83.27Zm0,5.71h2.17c2,0,3,.92,3,2.65s-1,2.67-3,2.67H83.27Zm-1.16,6.31h3.56c2.46,0,3.94-1.37,3.94-3.64a3,3,0,0,0-2.42-3.24v0a2.75,2.75,0,0,0,2-2.81c0-1.93-1-3.26-3.49-3.26H82.11Z"/><path class="cls-4" d="M95.66,45.72c0,1.72-.9,2.72-2.24,2.72-.94,0-1.53-.76-1.53-1.88a1.87,1.87,0,0,1,1.65-2l.91-.24c.43-.12,1.06-.31,1.16-.63h0v2Zm-3.52-3.37c0-1.4.56-2.18,1.85-2.18a1.49,1.49,0,0,1,1.68,1.68c0,1.12-.16,1.31-.93,1.53l-2,.59a2.53,2.53,0,0,0-2,2.66c0,1.68.77,2.73,2.46,2.73a2.34,2.34,0,0,0,2.49-1.64h0v.34c0,1,.54,1.21,1.4,1.21a2.5,2.5,0,0,0,.51-.1v-.81h-.31c-.38,0-.56-.25-.56-.8V41.85c0-1.53-.72-2.57-2.72-2.57s-3,1.12-3,3.1h1.06Z"/><path class="cls-4" d="M99,39.48h1v1.34h0a2.72,2.72,0,0,1,2.48-1.57,2.27,2.27,0,0,1,2.47,2.6v7.29h-1.09v-7c0-1.33-.54-2-1.65-2a2.18,2.18,0,0,0-2.13,2.47v6.5H99V39.48Z"/><path class="cls-4" d="M107,36.15H108v8.13h0l3.75-4.8h1.34l-2.91,3.57,3.44,6.09h-1.34L109.48,44,108,45.75v3.39H107Z"/><path class="cls-4" d="M120.15,44.29c0-3.08.94-4.12,2.16-4.12s2.16,1.06,2.16,4.12-.94,4.15-2.16,4.15S120.15,47.38,120.15,44.29Zm-1.17,0c0,3.37,1.21,5.05,3.33,5.05s3.33-1.69,3.33-5.05-1.21-5-3.33-5S119,41,119,44.29Z"/><path class="cls-4" d="M127.64,40.39h-1.32v-.91h1.32V38.33c0-1.33.28-2.33,2.11-2.33a3.2,3.2,0,0,1,.69.06V37a2.86,2.86,0,0,0-.53,0c-.8,0-1.18.31-1.18,1.41v1.15h1.71v.91h-1.71v8.75h-1.09Z"/><path class="cls-4" d="M137.77,37.12h1.89c2.54,0,3.62,1.28,3.62,5.54s-1.08,5.49-3.62,5.49h-1.89Zm-1.16,12h3.14c3.78,0,4.71-2.26,4.71-6.5s-.93-6.49-4.71-6.49h-3.14Z"/><path class="cls-4" d="M146.4,39.48h1.09v6.8c0,1.56.52,2.16,1.68,2.16A2.19,2.19,0,0,0,151.28,46V39.48h1.08v9.66h-1V47.78h0a2.7,2.7,0,0,1-2.48,1.56,2.26,2.26,0,0,1-2.47-2.57Z"/><path class="cls-4" d="M155.47,44.29c0-3.56,1-4.12,2.11-4.12s2.1.56,2.1,4.12-1,4.15-2.1,4.15S155.47,47.87,155.47,44.29Zm-1.1,4.85h1V47.53h0a2.39,2.39,0,0,0,2.37,1.81c2.12,0,3.1-1.71,3.1-5.05s-1-5-3.1-5a2.13,2.13,0,0,0-2.25,1.67h0V36.15h-1.09v13Z"/><path class="cls-4" d="M167,45.72c0,1.72-.92,2.72-2.24,2.72-.94,0-1.53-.76-1.53-1.88a1.87,1.87,0,0,1,1.65-2l.91-.24c.43-.12,1.05-.31,1.16-.63H167Zm-3.54-3.37c0-1.4.56-2.18,1.86-2.18A1.49,1.49,0,0,1,167,41.85c0,1.12-.16,1.31-.93,1.53L164,44a2.54,2.54,0,0,0-1.95,2.66c0,1.68.77,2.73,2.46,2.73A2.34,2.34,0,0,0,167,47.72h0v.34c0,1,.55,1.21,1.4,1.21a2.46,2.46,0,0,0,.52-.1v-.81h-.31c-.39,0-.58-.25-.58-.8V41.85c0-1.53-.72-2.57-2.72-2.57s-3,1.12-3,3.1h1.1Z"/><path class="cls-4" d="M74.9,14.16s.23,10.16.23,10.77a4,4,0,0,1-.6,2.69C75.15,27.31,76,25.87,76,24c0-.94-.26-10.89-.26-10.89Z"/><path class="cls-4" d="M14.23,17.93s.63,8.2.32,9.29C14,29.15,13,30,10.59,30.48a2.59,2.59,0,0,0,2.69-.12c1.29-.91,2.17-3.17,2.17-5.33,0-1-.35-8.29-.35-8.29Z"/><path class="cls-4" d="M71.29,14.16s.22,9.68.31,10.74c.06.75-.25,1-1.24,1h-3c-.36,0-1.72,0-2.15-.52s-.53-.78-.53-3.49c0-3.38.12-4.35-.26-5.11l-.8,1.2c.24.44.45.67.36,3.41s.35,3.14-.08,4c-.31.6-2,.53-2.35.53H58c-.36-1.06-1.39-2.05-3.52-3.43C51.76,20.63,50,19.61,50,18.11a4.5,4.5,0,0,1,.15-1.36,4.3,4.3,0,0,0-.84,2.32c0,1.38,1.22,2.56,3.32,3.83a20.42,20.42,0,0,1,4.27,3H22.07c-.36,0-2.09,0-2.4-.64-.51-1.11-.14-5-.13-7.79s.11-3.55-.29-4.3l-.75,1.29c.23.46.36.49.28,3.23s-.19,6.77-.12,7.71c.12,1.34.46,2,3.47,2H57.58a8.06,8.06,0,0,1-1.15,4.31,7.4,7.4,0,0,0,1.74-4.31H61.6c.66,0,2.4.07,3-1.49.48,1.35,1.19,1.49,2.78,1.49H70.4a1.46,1.46,0,0,0,1.45-.9A5.43,5.43,0,0,0,72.38,24c0-.94-.27-10.9-.27-10.9Z"/><path class="cls-4" d="M11.33,26.13c0-1.29-.52-1.62-1.39-2.63-.71-.84-1.28-1.39-1.28-1.7s.77-3.06,2.43-3.56l.27-1.49C10.13,16.8,8.2,20,8,22.57c0,.52.59,1,1,1.52.78.87,1.71,1.35,1.71,1.63s-.4.13-.67.13H4.4c-1.88,0-2.87-.75-2.87-3.85,0-3.39.77-4.6.77-4.6l-.07-.65a10.28,10.28,0,0,0-1.34,5.7c0,3.83.44,4.89,3.43,4.89h6.12S11.33,27.44,11.33,26.13Z"/><path class="cls-4" d="M153.09,15.52a3.36,3.36,0,0,0,.76-1.2,3.4,3.4,0,0,0-.87-1.19l-.63,1.22A1.87,1.87,0,0,1,153.09,15.52Z"/><path class="cls-4" d="M63.39,15.52a3.22,3.22,0,0,0,.76-1.2,3.4,3.4,0,0,0-.87-1.19l-.64,1.22A1.75,1.75,0,0,1,63.39,15.52Z"/><path class="cls-4" d="M64.87,15.52a3.29,3.29,0,0,0,.75-1.2,3.4,3.4,0,0,0-.87-1.19l-.63,1.22A1.83,1.83,0,0,1,64.87,15.52Z"/><path class="cls-4" d="M162.38,31.38a3.15,3.15,0,0,0,.75-1.2,3.4,3.4,0,0,0-.87-1.19l-.63,1.22A1.86,1.86,0,0,1,162.38,31.38Z"/><path class="cls-4" d="M102.83,31.38a3.15,3.15,0,0,0,.75-1.2,3.4,3.4,0,0,0-.87-1.19l-.63,1.22A1.82,1.82,0,0,1,102.83,31.38Z"/><path class="cls-4" d="M86.91,31.38a3.29,3.29,0,0,0,.77-1.2A3.4,3.4,0,0,0,86.81,29l-.64,1.22A1.87,1.87,0,0,1,86.91,31.38Z"/><path class="cls-4" d="M52.9,31.38a3.29,3.29,0,0,0,.75-1.2A3.4,3.4,0,0,0,52.78,29l-.64,1.22A1.9,1.9,0,0,1,52.9,31.38Z"/><path class="cls-4" d="M88.38,31.38a3.15,3.15,0,0,0,.75-1.2A3.32,3.32,0,0,0,88.27,29l-.64,1.22A1.78,1.78,0,0,1,88.38,31.38Z"/><path class="cls-4" d="M5.11,31.38a3.15,3.15,0,0,0,.75-1.2A3.4,3.4,0,0,0,5,29l-.63,1.22A1.78,1.78,0,0,1,5.11,31.38Z"/><path class="cls-4" d="M6.58,31.38a3.22,3.22,0,0,0,.76-1.2A3.4,3.4,0,0,0,6.47,29l-.64,1.22A1.78,1.78,0,0,1,6.58,31.38Z"/><path class="cls-4" d="M137.68,21.6a2.86,2.86,0,0,0,2.71-2.83,5.52,5.52,0,0,1-2.28,0c-.12-.09,1.06-1,1.78-1.06a3.44,3.44,0,0,0,.09-.93,5.33,5.33,0,0,0-1.65.93c-.72.62-1.13,1.25-1,1.64.45.57,2.43.3,2.43.3s-.06.76-2.4,1.2-3.2,0-3.2,0S134.93,21.94,137.68,21.6Z"/><path class="cls-4" d="M117.92,16.8c-1.65,0-2.07,2.1-2.07,2.1a2,2,0,0,1,1.73-.95c2.32,0,4.36,8,2.85,8h-4c-1.85,0-2.22-.25-1.88-2.5-1.17,2.61-.39,4,1.42,4h4.72C122.93,27.4,121,16.8,117.92,16.8Z"/><path class="cls-4" d="M170,16.8S169.28,18,169.3,18c1.71,3.78,1.82,7.87.93,7.87H156.4c-.37,0-1.71,0-2.15-.51s-.52-.78-.52-3.49c0-3.39.12-4.36-.26-5.1L152.66,18c.23.44.44.68.35,3.42s.36,3.13-.07,4c-.31.61-2,.53-2.34.53h-1.52a2.53,2.53,0,0,1-1.32-.26c-.62-.4-.36-.9-.36-2.37,0-2-.25-5.72-.13-10.15l-1,.93s.16,5,.16,6.1.48,4.09-.25,4.93-1.79.84-3.19.84H131.88c-1.87,0-2.85-.75-2.85-3.86,0-3.39.76-4.59.76-4.59l-.07-.65s-1.34,1.85-1.34,5.7.42,4.9,3.41,4.9h11.36c1.12,0,3-.18,3.66-1.47a2.18,2.18,0,0,0,2.26,1.47h1.5c.66,0,2.4.07,3-1.49.47,1.36,1.2,1.49,2.79,1.49h12.25c.9,0,2,0,2.32-.41C171.27,26.4,172.33,22.11,170,16.8Z"/><path class="cls-4" d="M109.41,18.05c1.71,3.79,1.83,7.86.93,7.86H97c-1.07,0-2.22.2-2.15-2.82.09-3.7-.29-6-.48-6.28-.9-.1-4.86,2.77-4.92,5.85,0,.52.62,1.08,1.12,1.59s1.32,1.09,1.32,1.52c0,.16-.28.16-.44.16H86c-1.87,0-2.87-.75-2.87-3.86,0-3.39.76-4.59.76-4.59l-.06-.65s-1.34,1.85-1.34,5.7.43,4.89,3.42,4.89h5.68s.77.1.77-1.23a3.31,3.31,0,0,0-1.06-2.59c-.71-.85-1.21-1.41-1.21-1.71a7.8,7.8,0,0,1,3.81-3.62,20.82,20.82,0,0,1,.31,4c.14,3-.67,5.13,2.93,5.13h11.58c.9,0,2,0,2.33-.42s1.44-4.86-.87-10.17C110.18,16.8,109.41,18,109.41,18.05Z"/></svg>